<svg width="14" height="58" viewBox="0 0 14 58" fill="none" xmlns="http://www.w3.org/2000/svg">
<path d="M8.71682 4.85965C8.64833 2.5093 6.62346 0.700902 4.28062 0.897701V0.897701C2.02233 1.0874 0.341729 3.07218 0.526879 5.33084L4.05418 48.3606C4.10309 48.9573 4.33138 49.5248 4.70904 49.9887V49.9887C6.49769 52.1854 10.0571 50.8546 9.97453 48.02L8.71682 4.85965Z" fill="white"/>
<path d="M2.71071 50.0018C2.52424 53.4782 0.769802 56.4532 4.91602 56.8952C9.06224 57.3372 11.0946 56.9023 11.4088 53.9548C10.888 44.8045 10.5285 41.9808 6.38224 41.5387C2.23602 41.0967 2.96123 45.3315 2.71071 50.0018Z" fill="black"/>
</svg>
