<svg width="41" height="54" viewBox="0 0 41 54" fill="none" xmlns="http://www.w3.org/2000/svg">
<path d="M30.5398 33.6687C31.0684 30.6121 28.7149 27.8167 25.6129 27.8167H15.943C12.8706 27.8167 10.525 30.5617 11.0042 33.5965L12.92 45.7298C13.0103 46.3018 13.0006 46.8851 12.8912 47.4538L12.7878 47.9917C12.1948 51.0753 14.5577 53.9359 17.6978 53.9359H23.6632C26.8033 53.9359 29.1662 51.0753 28.5732 47.9917L28.4769 47.4909C28.3629 46.8981 28.3572 46.2895 28.4601 45.6947L30.5398 33.6687Z" fill="black"/>
<path d="M23.7139 8.2625C23.7139 11.6859 30.2678 20.6599 33.5242 20.6599C36.7807 20.6599 38.9619 17.9687 38.9619 14.5452C38.9619 11.1218 36.7807 8.2625 33.5242 8.2625C30.2678 8.2625 23.7139 4.83905 23.7139 8.2625Z" fill="white"/>
<path d="M1.75642 14.4612C1.75642 17.8846 4.39629 20.6599 7.65274 20.6599C10.9092 20.6599 16.9375 11.6859 16.9375 8.2625C16.9375 4.83905 10.9092 8.2625 7.65274 8.2625C4.39629 8.2625 1.75642 11.0377 1.75642 14.4612Z" fill="white"/>
<path d="M24.2262 4.0093C23.7841 2.23599 22.1913 0.991516 20.3638 0.991516V0.991516C18.6256 0.991516 17.0884 2.1193 16.5667 3.77732L16.226 4.85977C15.3541 7.63057 17.4233 10.4509 20.3281 10.4509V10.4509C23.1245 10.4509 25.1771 7.82383 24.5007 5.11039L24.2262 4.0093Z" fill="white"/>
<path d="M36.6498 18.7575C38.674 14.2502 36.1689 9.00377 31.3912 7.7443L22.3173 5.3523C20.9535 4.99281 19.519 5.00021 18.1591 5.37376L9.89387 7.64403C5.12169 8.95485 2.67245 14.2405 4.75747 18.7288L9.8456 29.6816C11.1572 32.505 13.9877 34.3111 17.1009 34.3111H24.4877C27.6379 34.3111 30.4949 32.4624 31.7855 29.5886L36.6498 18.7575Z" fill="black"/>
</svg>
