<svg width="14" height="40" viewBox="0 0 14 40" fill="none" xmlns="http://www.w3.org/2000/svg">
<path d="M7.42883 3.57398C7.20029 1.70933 5.43744 0.4304 3.59393 0.791802V0.791802C1.83994 1.13566 0.696795 2.8363 1.04065 4.59029L1.6978 7.9424L6.91863 31.0414C6.99349 31.3726 7.15446 31.6781 7.38527 31.9272V31.9272C8.65724 33.2997 10.9421 32.2389 10.7144 30.3815L7.42883 3.57398Z" fill="white"/>
<path d="M11.0285 29.0663C10.8075 27.7406 9.64243 26.7812 8.29898 26.8186V26.8186C7.0141 26.8543 5.93386 27.7937 5.72009 29.0612L4.64994 35.4063C4.2549 37.7485 6.09809 39.8681 8.47249 39.802V39.802C10.759 39.7383 12.4625 37.6697 12.0864 35.4135L11.0285 29.0663Z" fill="black"/>
</svg>
