<svg width="30" height="55" viewBox="0 0 30 55" fill="none" xmlns="http://www.w3.org/2000/svg">
<path d="M4.76742 15.3902C4.90558 12.3195 7.50688 9.9422 10.5776 10.0804V10.0804C13.8265 10.2265 16.2585 13.1153 15.8487 16.3416L12.04 46.3288C11.6027 49.7717 7.49839 51.3305 4.88579 49.0459V49.0459C3.8931 48.1778 3.34951 46.9051 3.40878 45.5877L4.76742 15.3902Z" fill="black"/>
<path d="M25.2194 1.27827C25.1395 0.795543 24.7221 0.441498 24.2328 0.441498L9.1378 0.441503C8.70933 0.441503 8.32847 0.71447 8.19082 1.12022L5.63327 8.65874C5.60941 8.72908 5.59345 8.80186 5.58571 8.87574L1.8817 44.2026C1.7909 45.0686 2.77356 45.6289 3.47258 45.1096L28.8073 26.2893C29.1081 26.0658 29.2587 25.693 29.1975 25.3233L25.2194 1.27827Z" fill="white"/>
</svg>
