<svg width="11" height="42" viewBox="0 0 11 42" fill="none" xmlns="http://www.w3.org/2000/svg">
<path d="M3.55177 3.78342C3.60456 1.90617 5.23738 0.466987 7.1064 0.650325V0.650325C8.88705 0.824996 10.189 2.4101 10.0143 4.19075L9.66277 7.77431L6.60676 31.9598C6.56517 32.2889 6.43934 32.6017 6.24144 32.868V32.868C5.11744 34.3802 2.7148 33.5474 2.76776 31.664L3.55177 3.78342Z" fill="white"/>
<path d="M2.40599 30.6955C2.47289 29.3532 3.51982 28.266 4.85866 28.1486V28.1486C6.13912 28.0362 7.32029 28.845 7.67853 30.0795L9.47189 36.2592C10.1339 38.5404 8.54692 40.858 6.18069 41.0657V41.0657C3.90206 41.2656 1.97179 39.4068 2.08566 37.1223L2.40599 30.6955Z" fill="black"/>
</svg>
