<svg width="26" height="55" viewBox="0 0 26 55" fill="none" xmlns="http://www.w3.org/2000/svg">
<path d="M22.2891 14.8851C22.0512 11.8205 19.374 9.52894 16.3095 9.76681V9.76681C13.067 10.0185 10.7302 12.9848 11.2446 16.1961L16.0256 46.0436C16.5746 49.4705 20.7274 50.8951 23.2644 48.5268V48.5268C24.2283 47.6269 24.7303 46.3372 24.6282 45.0225L22.2891 14.8851Z" fill="black"/>
<path d="M20.3105 1.12024C20.1728 0.714481 19.792 0.441513 19.3635 0.441513L4.1371 0.441517C3.70863 0.441518 3.32778 0.714485 3.19012 1.12024L0.754263 8.30006C0.654854 8.59307 0.696685 8.9156 0.867552 9.17356L15.7531 31.6463C15.8137 31.7379 15.889 31.8188 15.976 31.8859L23.9104 38.0068C24.602 38.5403 25.5972 37.993 25.517 37.1232L24.3158 24.0866L22.9148 8.88224C22.9076 8.80408 22.8912 8.72704 22.866 8.65272L20.3105 1.12024Z" fill="white"/>
</svg>
