<svg width="13" height="58" viewBox="0 0 13 58" fill="none" xmlns="http://www.w3.org/2000/svg">
<path d="M4.4242 4.413C4.48027 2.06018 6.4936 0.263452 8.83567 0.476133V0.476133C11.0938 0.681185 12.7845 2.68016 12.6122 4.94096L9.30417 48.3239C9.25888 48.9179 9.03603 49.4819 8.66462 49.9426V49.9426C6.89333 52.1395 3.31909 50.7849 3.38683 47.9423L4.4242 4.413Z" fill="white"/>
<path d="M11.0798 50.1403C11.389 53.6079 13.2474 56.519 9.1194 57.1072C4.99138 57.6954 2.94492 57.3326 2.52678 54.398C2.72408 45.235 2.98366 42.4003 7.11168 41.8121C11.2397 41.2239 10.6645 45.4817 11.0798 50.1403Z" fill="black"/>
</svg>
