<svg width="29" height="55" viewBox="0 0 29 55" fill="none" xmlns="http://www.w3.org/2000/svg">
<path d="M24.2326 15.3894C24.0944 12.3187 21.4931 9.9414 18.4225 10.0796V10.0796C15.1735 10.2257 12.7416 13.1145 13.1514 16.3408L16.9601 46.3277C17.3974 49.7706 21.5016 51.3294 24.1142 49.0448V49.0448C25.1069 48.1767 25.6505 46.904 25.5912 45.5866L24.2326 15.3894Z" fill="black"/>
<path d="M3.68961 1.11952C3.82727 0.713761 4.20812 0.440792 4.63659 0.440793L19.8629 0.440797C20.2913 0.440797 20.6722 0.713764 20.8099 1.11952L23.3674 8.65797C23.3912 8.72831 23.4072 8.8011 23.4149 8.87497L27.1144 44.158C27.2059 45.0306 26.2093 45.5896 25.5124 45.0566L8.41005 31.9784C8.24445 31.8517 8.12257 31.6765 8.06145 31.4772L1.19086 9.07252C1.12932 8.87182 1.13249 8.65685 1.19993 8.45806L3.68961 1.11952Z" fill="white"/>
</svg>
