<svg width="26" height="55" viewBox="0 0 26 55" fill="none" xmlns="http://www.w3.org/2000/svg">
<path d="M3.71092 14.8842C3.94878 11.8197 6.62593 9.52815 9.69051 9.76601V9.76601C12.9329 10.0177 15.2698 12.984 14.7554 16.1952L9.97431 46.0425C9.42537 49.4694 5.27263 50.894 2.73566 48.5257V48.5257C1.77171 47.6259 1.26976 46.3361 1.37181 45.0214L3.71092 14.8842Z" fill="black"/>
<path d="M5.68947 1.11944C5.82712 0.713685 6.20798 0.440717 6.63645 0.440717L21.8627 0.440721C22.2912 0.440722 22.6721 0.713689 22.8097 1.11944L25.2456 8.2992C25.345 8.59221 25.3031 8.91474 25.1323 9.1727L10.2469 31.6453C10.1862 31.7369 10.1109 31.8178 10.024 31.8849L2.08957 38.0057C1.398 38.5392 0.402846 37.9919 0.48299 37.1222L3.08522 8.88138C3.09242 8.80322 3.1088 8.72619 3.13401 8.65186L5.68947 1.11944Z" fill="white"/>
</svg>
