<svg width="11" height="42" viewBox="0 0 11 42" fill="none" xmlns="http://www.w3.org/2000/svg">
<path d="M7.44822 3.78278C7.39544 1.90555 5.76263 0.466375 3.89363 0.649713V0.649713C2.11299 0.824382 0.811089 2.40947 0.985758 4.19012L1.33728 7.77364L4.39326 31.9589C4.43485 32.2881 4.56068 32.6009 4.75858 32.8671V32.8671C5.88257 34.3793 8.28519 33.5465 8.23223 31.6631L7.44822 3.78278Z" fill="white"/>
<path d="M8.595 30.6947C8.5281 29.3524 7.48117 28.2652 6.14235 28.1477V28.1477C4.8619 28.0354 3.68073 28.8442 3.3225 30.0786L1.52915 36.2583C0.867145 38.5395 2.45411 40.8571 4.82033 41.0647V41.0647C7.09894 41.2647 9.0292 39.4059 8.91533 37.1214L8.595 30.6947Z" fill="black"/>
</svg>
