<svg width="15" height="58" viewBox="0 0 15 58" fill="none" xmlns="http://www.w3.org/2000/svg">
<path d="M8.57678 4.41187C8.52071 2.05906 6.5074 0.262352 4.16533 0.475031V0.475031C1.90727 0.680082 0.216499 2.67904 0.388886 4.93983L3.69684 48.3224C3.74213 48.9164 3.96498 49.4805 4.33638 49.9411V49.9411C6.10766 52.138 9.68188 50.7834 9.61413 47.9409L8.57678 4.41187Z" fill="white"/>
<path d="M2.29565 52.5302C3.86269 55.3918 3.22059 56.2697 8.61801 56.0269C12.7769 55.7266 14.6999 54.9382 14.4864 51.9817C7.80558 45.264 11.4966 40.3537 7.33771 40.6539C3.17885 40.9542 2.08543 47.8579 2.29565 52.5302Z" fill="black"/>
</svg>
