<svg width="41" height="54" viewBox="0 0 41 54" fill="none" xmlns="http://www.w3.org/2000/svg">
<path d="M10.4602 33.6682C9.93165 30.6115 12.2851 27.8162 15.3871 27.8162H25.0568C28.1292 27.8162 30.4748 30.5612 29.9956 33.596L28.0799 45.7291C27.9895 46.3011 27.9993 46.8845 28.1086 47.4531L28.2121 47.991C28.8051 51.0746 26.4422 53.9352 23.302 53.9352H17.3368C14.1967 53.9352 11.8338 51.0746 12.4268 47.991L12.5231 47.4902C12.6371 46.8974 12.6428 46.2888 12.5399 45.694L10.4602 33.6682Z" fill="black"/>
<path d="M17.285 8.26212C17.285 11.6855 10.7312 20.6594 7.47474 20.6594C4.21832 20.6594 2.03711 17.9682 2.03711 14.5448C2.03711 11.1214 4.21832 8.26212 7.47474 8.26212C10.7312 8.26212 17.285 4.8387 17.285 8.26212Z" fill="white"/>
<path d="M39.2435 14.4608C39.2435 17.8842 36.6036 20.6594 33.3472 20.6594C30.0908 20.6594 24.0625 11.6855 24.0625 8.26212C24.0625 4.8387 30.0908 8.26212 33.3472 8.26212C36.6036 8.26212 39.2435 11.0373 39.2435 14.4608Z" fill="white"/>
<path d="M4.35119 18.7571C2.32695 14.2498 4.83204 9.00336 9.60978 7.74389L18.6836 5.35193C20.0473 4.99244 21.4818 4.99984 22.8417 5.37339L31.1068 7.64363C35.879 8.95444 38.3282 14.2401 36.2432 18.7284L31.1552 29.681C29.8435 32.5045 27.0131 34.3106 23.8998 34.3106H16.5132C13.363 34.3106 10.506 32.4618 9.21541 29.588L4.35119 18.7571Z" fill="black"/>
<path d="M16.7748 4.0091C17.2168 2.2358 18.8096 0.991333 20.6372 0.991333V0.991333C22.3753 0.991333 23.9125 2.11911 24.4342 3.77711L24.7749 4.85956C25.6468 7.63034 23.5776 10.4507 20.6729 10.4507V10.4507C17.8764 10.4507 15.8238 7.8236 16.5003 5.11018L16.7748 4.0091Z" fill="white"/>
</svg>
