<svg width="14" height="40" viewBox="0 0 14 40" fill="none" xmlns="http://www.w3.org/2000/svg">
<path d="M6.57117 3.57328C6.79971 1.70865 8.56255 0.429726 10.406 0.791126V0.791126C12.16 1.13498 13.3032 2.83561 12.9593 4.58959L12.3022 7.94167L7.08137 31.0405C7.00651 31.3717 6.84554 31.6772 6.61474 31.9263V31.9263C5.34277 33.2988 3.05795 32.238 3.28559 30.3806L6.57117 3.57328Z" fill="white"/>
<path d="M2.97149 29.0655C3.19245 27.7398 4.35755 26.7804 5.70099 26.8178V26.8178C6.98587 26.8535 8.06609 27.7929 8.27986 29.0604L9.35 35.4054C9.74504 37.7477 7.90187 39.8672 5.52748 39.8011V39.8011C3.241 39.7374 1.53751 37.6688 1.91357 35.4126L2.97149 29.0655Z" fill="black"/>
</svg>
