<svg width="16" height="58" viewBox="0 0 16 58" fill="none" xmlns="http://www.w3.org/2000/svg">
<path d="M7.2822 4.85845C7.35069 2.50812 9.37554 0.699741 11.7184 0.896539V0.896539C13.9766 1.08623 15.6572 3.071 15.4721 5.32964L11.9448 48.3591C11.8959 48.9558 11.6676 49.5233 11.29 49.9871V49.9871C9.50132 52.1838 5.94191 50.853 6.02451 48.0185L7.2822 4.85845Z" fill="white"/>
<path d="M13.0975 52.7966C11.4383 55.6057 12.0515 56.5041 6.66486 56.086C2.51795 55.6508 0.621584 54.8003 0.930989 51.8523C7.82658 45.3552 4.29709 40.3275 8.44399 40.7627C12.5909 41.198 13.4594 48.1336 13.0975 52.7966Z" fill="black"/>
</svg>
