<svg width="29" height="52" viewBox="0 0 29 52" fill="none" xmlns="http://www.w3.org/2000/svg">
<path d="M28.4008 13.804C28.4008 17.2462 25.7465 20.0366 22.4723 20.0366C19.198 20.0366 13.1367 11.0136 13.1367 7.57142C13.1367 4.12925 19.198 7.57142 22.4723 7.57142C25.7465 7.57142 28.4008 10.3619 28.4008 13.804Z" fill="white"/>
<path d="M2.06543 16.8679C2.06543 15.2265 2.57031 13.6248 3.51157 12.2802L6.54218 7.95073C8.59633 5.01623 12.3508 3.80485 15.7326 4.9854L21.6046 7.03519C23.7998 7.80146 25.5529 9.48479 26.4077 11.647L26.7501 12.5131C27.2261 13.7171 27.4028 15.0186 27.265 16.306L26.3232 25.1031C26.2403 25.8772 26.0448 26.6351 25.743 27.3528L24.4951 30.3201C23.5527 32.5608 21.6428 34.2515 19.3043 34.915L14.6293 36.2413C10.7089 37.3536 6.57895 35.3412 5.03897 31.5683L2.65865 25.7365C2.2669 24.7767 2.06543 23.75 2.06543 22.7133V16.8679Z" fill="black"/>
<path d="M12.5689 13.388C12.5689 16.8301 9.38621 19.5361 6.11195 19.5361C2.83769 19.5361 0.644531 16.8301 0.644531 13.388C0.644531 9.9458 2.83769 7.53223 6.11195 7.53223C9.38621 7.53223 12.5689 9.9458 12.5689 13.388Z" fill="white"/>
<path d="M11.0069 13.5136C11.0069 16.4038 8.44937 18.6758 5.81827 18.6758C3.18717 18.6758 1.4248 16.4038 1.4248 13.5136C1.4248 10.6234 3.18717 8.59686 5.81827 8.59686C8.44937 8.59686 11.0069 10.6234 11.0069 13.5136Z" fill="black"/>
<path d="M11.3926 3.32422C11.3926 1.6498 12.75 0.292419 14.4244 0.292419V0.292419C16.0988 0.292419 17.4562 1.6498 17.4562 3.32422L17.4562 4.57589C17.4562 7.52779 13.6665 8.73896 11.9545 6.3342V6.3342C11.589 5.82075 11.3926 5.20616 11.3926 4.57589V3.32422Z" fill="white"/>
<path d="M6.53711 32.2643C6.53711 29.5029 8.77569 27.2643 11.5371 27.2643H18.151C21.0972 27.2643 23.4048 29.7989 23.1291 32.7322L21.8685 46.1447V46.5546C21.8685 49.1506 19.764 51.2551 17.168 51.2551V51.2551C16.3865 51.2551 15.6174 51.0603 14.9302 50.6883L9.15676 47.5628C7.5427 46.6891 6.53711 45.0012 6.53711 43.1658L6.53711 32.2643Z" fill="black"/>
</svg>
