<svg width="28" height="47" viewBox="0 0 28 47" fill="none" xmlns="http://www.w3.org/2000/svg">
<path d="M18.8467 12.8018C19.4847 9.8074 17.5745 6.86273 14.5801 6.22472V6.22472C11.3731 5.54141 8.27703 7.77583 7.91515 11.0348L4.69829 40.0043C4.4333 42.3907 6.26908 44.4919 8.66944 44.5496V44.5496C10.6385 44.597 12.3622 43.2358 12.7727 41.3095L18.8467 12.8018Z" fill="black"/>
<path d="M11.0245 0.776995C11.1994 0.454726 11.5367 0.254039 11.9034 0.254039L21.9864 0.254039C22.1667 0.254039 22.3435 0.302748 22.4984 0.395015L26.3164 2.67036C26.619 2.85073 26.8044 3.17706 26.8044 3.52938L26.8044 26.5658C26.8044 26.8963 26.6412 27.2054 26.3683 27.3917L12.1281 37.1131C11.6744 37.4229 11.0558 37.3086 10.7426 36.8572L5.81603 29.755C5.67506 29.5517 5.6144 29.3035 5.64578 29.0581L8.69633 5.20823C8.71202 5.08552 8.75035 4.96679 8.80937 4.85806L11.0245 0.776995Z" fill="white"/>
</svg>
