<svg width="11" height="41" viewBox="0 0 11 41" fill="none" xmlns="http://www.w3.org/2000/svg">
<path d="M3.85459 3.81618C3.92471 1.92861 5.5819 0.497136 7.45961 0.702174V0.702174C9.24615 0.897256 10.5363 2.50368 10.3412 4.29021L9.96837 7.70452L6.70548 31.2911C6.6587 31.6293 6.52346 31.9491 6.31344 32.2183V32.2183C5.15602 33.7017 2.77657 32.8336 2.84643 30.9533L3.85459 3.81618Z" fill="white"/>
<path d="M2.55137 29.6976C2.65981 28.3506 3.74535 27.2901 5.09449 27.2131V27.2131C6.3848 27.1395 7.54706 27.9886 7.86919 29.2403L9.48183 35.506C10.0771 37.8189 8.41106 40.0994 6.02661 40.2355V40.2355C3.73045 40.3665 1.84758 38.4391 2.03215 36.1466L2.55137 29.6976Z" fill="black"/>
</svg>
