<svg width="24" height="41" viewBox="0 0 24 41" fill="none" xmlns="http://www.w3.org/2000/svg">
<path d="M1.39591 5.43628C0.650188 3.70151 1.53103 1.69815 3.31351 1.075V1.075C5.01171 0.481303 6.86966 1.37668 7.46335 3.07489L8.65816 6.4925L16.0983 29.8472C16.1996 30.165 16.2171 30.5035 16.1492 30.8301V30.8301C15.7633 32.6849 13.2195 32.9413 12.4713 31.2008L1.39591 5.43628Z" fill="white"/>
<path d="M11.7303 30.4718C11.2237 29.2191 11.7189 27.7846 12.8905 27.1112V27.1112C14.0111 26.4672 15.4306 26.7055 16.2794 27.6801L20.5288 32.5589C22.0974 34.3599 21.6298 37.1452 19.5591 38.3353V38.3353C17.5651 39.4813 15.0182 38.602 14.1559 36.4698L11.7303 30.4718Z" fill="black"/>
</svg>
