<svg width="25" height="60" viewBox="0 0 25 60" fill="none" xmlns="http://www.w3.org/2000/svg">
<path d="M8.98291 5.16496C8.86214 2.80168 6.78936 1.05092 4.44116 1.32881V1.32881C2.17719 1.59673 0.532513 3.65219 0.767678 5.9198L5.28029 49.4333C5.34208 50.0291 5.58151 50.5899 5.96742 51.0427V51.0427C7.80789 53.2023 11.3633 51.7429 11.2173 48.8878L8.98291 5.16496Z" fill="white"/>
<path d="M3.60522 54.2397C5.41571 56.9753 4.84611 57.9089 10.2337 57.2122C14.3755 56.562 24.692 58.3818 24.2 52.5131C8.27157 49.2167 11.8014 41.2664 7.65957 41.9166C3.51777 42.5668 3.00212 49.5759 3.60522 54.2397Z" fill="black"/>
</svg>
