<svg width="22" height="59" viewBox="0 0 22 59" fill="none" xmlns="http://www.w3.org/2000/svg">
<path d="M14.9917 5.40042C15.3864 3.0672 13.7427 0.908525 11.3902 0.670447V0.670447C9.12197 0.440908 7.0706 2.09068 6.8083 4.35531L1.77491 47.8116C1.70599 48.4066 1.81808 49.006 2.09658 49.5318V49.5318C3.42479 52.0392 7.21206 51.3858 7.68894 48.5669L14.9917 5.40042Z" fill="white"/>
<path d="M0.964857 53.7688C2.5738 56.6276 1.93849 57.5178 7.36227 57.2106C11.5401 56.8602 21.6989 59.4176 21.6305 53.5288C5.98058 49.0947 10.0733 41.419 5.8955 41.7694C1.71765 42.1199 0.698938 49.0738 0.964857 53.7688Z" fill="black"/>
</svg>
