<svg width="31" height="50" viewBox="0 0 31 50" fill="none" xmlns="http://www.w3.org/2000/svg">
<path d="M23.604 15.8556C23.5773 12.7941 21.0738 10.3339 18.0123 10.3606V10.3606C14.7335 10.3892 12.1958 13.242 12.5494 16.5018L15.6929 45.4794C15.9519 47.8664 18.1997 49.5194 20.5555 49.0551V49.0551C22.4879 48.6743 23.8753 46.9716 23.8582 45.0021L23.604 15.8556Z" fill="black"/>
<path d="M8.64571 1.19172C8.8853 0.914136 9.2576 0.789949 9.61586 0.868105L19.4672 3.01725C19.6433 3.05567 19.8057 3.14096 19.9373 3.2641L23.2885 6.40003C23.486 6.58485 23.6002 6.84179 23.6051 7.11224L24.0526 32.0231C24.067 32.8227 23.1834 33.3148 22.5111 32.8817L18.6562 30.3979C18.5231 30.3121 18.4123 30.1959 18.3328 30.0589L10.6401 16.7938L5.73732 5.42374C5.58562 5.07194 5.64825 4.66439 5.89858 4.37437L8.64571 1.19172Z" fill="white"/>
</svg>
