<?xml version="1.0" standalone="no"?>
<!DOCTYPE svg PUBLIC "-//W3C//DTD SVG 20010904//EN"
 "http://www.w3.org/TR/2001/REC-SVG-20010904/DTD/svg10.dtd">
<svg version="1.0" xmlns="http://www.w3.org/2000/svg"
 width="665.000000pt" height="665.000000pt" viewBox="0 0 665.000000 665.000000"
 preserveAspectRatio="xMidYMid meet">
<metadata>
Created by potrace 1.14, written by Peter Selinger 2001-2017
</metadata>
<g transform="translate(0.000000,665.000000) scale(0.100000,-0.100000)"
fill="#000000" stroke="none">
<path d="M2860 4776 c0 -2 8 -10 18 -17 15 -13 16 -12 3 4 -13 16 -21 21 -21
13z"/>
<path d="M2296 4732 c-3 -5 1 -9 9 -9 8 0 12 4 9 9 -3 4 -7 8 -9 8 -2 0 -6 -4
-9 -8z"/>
<path d="M2873 4655 c0 -8 4 -12 9 -9 5 3 6 10 3 15 -9 13 -12 11 -12 -6z"/>
<path d="M3429 4653 c-13 -16 -12 -17 4 -4 9 7 17 15 17 17 0 8 -8 3 -21 -13z"/>
<path d="M4064 4612 c4 -3 14 -7 22 -8 9 -1 13 0 10 4 -4 3 -14 7 -22 8 -9 1
-13 0 -10 -4z"/>
<path d="M4236 4603 c-6 -14 -5 -15 5 -6 7 7 10 15 7 18 -3 3 -9 -2 -12 -12z"/>
<path d="M3286 4554 c-25 -32 -46 -63 -46 -67 0 -5 -4 -5 -10 -2 -5 3 -10 -1
-10 -10 0 -8 -7 -18 -15 -21 -8 -4 -15 -12 -15 -19 0 -20 -27 -39 -34 -23 -3
7 -3 2 0 -11 5 -20 3 -23 -10 -18 -11 4 -15 3 -11 -4 4 -5 1 -16 -5 -25 -10
-12 -16 -12 -29 -2 -14 12 -14 11 -3 -4 15 -19 7 -42 -10 -32 -7 4 -8 2 -4 -5
4 -6 0 -14 -8 -17 -9 -3 -14 -10 -11 -14 12 -19 -18 -18 -121 2 -60 11 -117
21 -126 22 -10 0 -18 3 -18 6 0 3 -19 6 -43 7 -39 3 -79 9 -84 13 -5 4 -118
23 -148 25 -5 0 -15 3 -20 7 -6 4 -16 -2 -23 -13 -7 -10 -9 -19 -4 -19 11 0 9
-94 -3 -102 -6 -5 -6 -8 1 -8 12 0 11 -41 -1 -59 -3 -6 0 -11 7 -11 9 0 9 -3
-2 -10 -11 -7 -11 -10 -2 -10 9 0 10 -5 3 -19 -6 -10 -7 -21 -4 -25 11 -11 9
-76 -2 -76 -5 0 -3 -5 5 -10 13 -8 12 -10 -2 -10 -10 0 -18 -4 -18 -9 0 -6 -9
-8 -20 -6 -11 2 -20 0 -20 -4 0 -4 -6 -8 -12 -9 -32 -3 -53 -7 -58 -13 -8 -9
-124 -44 -142 -43 -10 1 -18 -2 -18 -6 0 -5 -8 -7 -17 -5 -10 1 -23 -2 -30 -7
-6 -5 -29 -10 -51 -11 -23 0 -39 -4 -37 -7 2 -3 -6 -7 -17 -7 -11 -1 -23 -4
-26 -7 -6 -7 30 -76 40 -76 4 0 5 -9 3 -20 -2 -11 0 -18 6 -15 8 6 14 -16 10
-38 -1 -5 3 -6 8 -3 5 4 15 -10 22 -29 7 -19 17 -35 22 -35 4 0 5 -4 2 -10 -3
-5 -1 -10 5 -10 6 0 9 -4 6 -9 -4 -5 -2 -11 2 -13 5 -1 20 -26 34 -55 14 -29
29 -49 33 -45 5 4 5 2 1 -5 -3 -6 -1 -15 5 -18 5 -4 8 -14 5 -22 -4 -9 -2 -11
6 -7 7 5 9 2 5 -9 -3 -8 0 -18 7 -20 12 -5 32 -70 28 -89 -1 -5 2 -8 7 -8 5 0
8 -11 7 -24 -2 -14 3 -27 11 -30 8 -3 11 -11 8 -16 -4 -6 -1 -17 5 -25 7 -8 9
-15 5 -15 -4 0 -2 -6 4 -13 6 -8 8 -17 4 -20 -3 -4 -1 -12 5 -20 11 -13 20
-45 29 -104 3 -18 8 -31 12 -28 4 2 8 -1 8 -8 0 -7 8 -38 17 -69 10 -32 14
-63 10 -69 -4 -8 -3 -9 4 -5 13 8 13 8 18 -49 2 -22 6 -57 9 -77 15 -109 19
-98 -65 -186 -72 -77 -76 -84 -62 -103 8 -11 12 -29 9 -39 -3 -13 0 -17 9 -13
13 5 19 -14 15 -40 -1 -5 3 -6 8 -3 7 5 20 -12 26 -34 0 -3 8 -19 18 -36 9
-17 13 -35 9 -40 -4 -5 -3 -6 2 -2 12 10 39 -29 30 -44 -4 -6 -3 -8 4 -4 5 3
12 1 14 -4 2 -6 17 -13 33 -16 17 -3 32 -9 33 -15 2 -5 8 -9 13 -9 6 0 7 5 3
11 -4 8 -1 8 12 1 18 -9 52 -17 119 -29 17 -3 38 -9 47 -14 9 -5 30 -9 46 -9
16 0 32 -3 36 -7 3 -4 14 -8 23 -9 9 -2 28 -6 42 -10 14 -4 33 -8 41 -9 8 0
26 -5 40 -10 23 -8 35 -10 76 -14 8 0 13 -5 10 -10 -3 -4 6 -6 19 -3 37 7 39
19 5 38 -16 10 -30 25 -30 33 0 8 -3 12 -6 9 -5 -6 -43 25 -125 103 -21 20
-41 34 -44 31 -5 -5 -9 14 -6 30 0 4 -6 5 -14 2 -8 -4 -17 1 -21 10 -3 9 -12
16 -19 16 -8 0 -17 9 -20 20 -4 11 -10 18 -13 16 -4 -2 -12 7 -19 20 -8 18 -8
22 0 17 7 -3 4 2 -5 13 -9 10 -17 21 -18 24 0 3 -3 14 -6 25 -3 11 -4 24 -4
29 1 5 -3 12 -8 15 -14 9 -27 55 -13 47 6 -4 11 -2 11 5 0 7 3 9 7 6 3 -4 12
-2 20 4 7 6 13 8 13 4 0 -4 7 -2 15 5 8 7 15 10 15 6 0 -3 16 0 35 8 19 8 35
12 35 9 0 -3 6 0 14 6 7 6 25 12 40 13 14 1 26 6 26 11 0 5 6 7 14 4 7 -3 19
0 25 6 8 8 11 8 11 0 0 -6 9 -13 20 -16 11 -3 24 -6 28 -7 4 -1 16 -7 27 -13
11 -6 26 -12 33 -13 7 -1 33 -12 58 -23 24 -12 49 -21 54 -21 6 0 8 -4 5 -10
-3 -5 0 -7 8 -5 16 7 100 -29 90 -38 -3 -4 -1 -7 5 -7 7 0 12 6 12 13 0 9 2 9
8 1 10 -17 52 -19 86 -5 16 6 36 9 43 7 8 -3 11 -1 8 4 -10 16 44 24 63 9 15
-13 16 -12 3 4 -12 15 -11 17 8 17 11 0 21 5 21 11 0 8 5 7 16 -1 8 -8 14 -9
13 -4 -4 21 2 26 18 13 9 -8 14 -9 10 -2 -9 14 27 28 44 17 8 -5 9 -3 4 6 -6
10 -4 12 8 7 10 -4 17 -2 17 4 0 6 9 9 20 6 12 -3 18 -1 14 5 -9 14 96 4 125
-11 12 -7 26 -9 31 -6 6 3 10 1 10 -4 0 -6 3 -10 8 -9 4 1 23 -1 44 -5 35 -7
36 -8 25 -37 -6 -16 -14 -27 -19 -24 -4 3 -5 -3 -1 -12 4 -10 0 -20 -11 -26
-9 -5 -14 -13 -11 -17 2 -5 0 -23 -6 -40 -8 -24 -16 -31 -28 -26 -13 5 -13 4
-4 -6 10 -10 4 -20 -25 -48 -20 -19 -41 -34 -45 -33 -5 1 -6 -2 -3 -7 4 -5 -2
-16 -12 -23 -9 -7 -28 -26 -40 -42 -12 -16 -22 -26 -22 -22 0 4 -17 -12 -37
-36 -55 -62 -82 -88 -93 -88 -6 0 -9 -6 -8 -12 2 -7 -3 -12 -10 -10 -8 1 -10
-2 -7 -8 5 -8 15 -6 31 5 18 11 24 12 24 3 0 -8 3 -9 8 -3 7 10 24 16 52 19 9
1 20 5 26 8 6 4 21 9 35 12 13 3 39 9 57 15 18 5 40 7 49 4 11 -4 14 -2 9 5
-5 8 2 13 21 14 37 2 43 3 74 16 30 12 100 27 112 24 4 -1 7 3 7 10 0 6 3 9 6
5 3 -3 23 1 44 8 21 7 40 11 43 8 3 -2 10 5 17 16 6 12 7 21 3 21 -4 0 3 7 15
16 12 8 20 19 17 24 -3 4 -2 10 2 12 5 1 16 20 26 41 9 21 21 36 26 33 5 -4 7
3 4 14 -3 11 0 20 6 20 6 0 11 7 11 16 0 9 5 12 12 8 6 -4 8 -3 5 3 -7 12 14
63 26 63 8 0 -24 36 -110 125 l-43 43 5 64 c3 35 7 77 8 93 2 30 47 176 57
185 3 3 5 10 5 15 1 18 28 100 37 110 4 5 8 19 8 30 0 12 3 25 7 29 4 3 8 16
10 28 2 12 7 26 12 32 5 6 11 28 15 49 4 20 11 37 17 37 6 0 8 4 5 8 -6 11 17
79 32 94 7 7 12 17 12 24 0 6 7 14 15 18 8 3 15 12 15 21 0 8 5 15 10 15 6 0
10 7 10 15 0 9 11 26 25 39 13 13 22 26 18 30 -4 3 3 13 15 22 12 8 20 20 17
25 -4 5 1 12 9 15 9 3 14 9 11 14 -2 4 2 16 10 26 8 10 15 27 15 37 0 10 4 16
9 13 4 -3 14 13 21 34 7 22 18 40 23 40 5 0 7 9 4 20 -3 11 -2 18 3 15 4 -3
10 1 13 9 4 10 0 12 -14 9 -12 -3 -19 0 -19 8 0 11 -2 11 -10 -1 -7 -11 -10
-11 -10 -2 0 7 -5 10 -10 7 -6 -4 -24 0 -40 9 -17 8 -27 10 -24 4 5 -8 1 -9
-11 -4 -10 4 -38 11 -61 16 -40 9 -121 34 -154 47 -19 8 -27 10 -41 12 -5 0
-7 7 -3 14 6 9 4 9 -8 -1 -11 -9 -18 -10 -23 -2 -3 6 -11 8 -16 5 -5 -4 -9 -1
-9 5 0 6 -5 8 -11 5 -7 -5 -8 5 -4 31 4 22 8 46 9 54 1 9 5 21 10 28 4 7 2 12
-6 13 -7 0 -4 4 7 9 11 5 14 9 8 9 -9 1 -10 8 -4 24 4 12 6 28 4 35 -3 6 -1
12 4 12 5 0 8 14 5 30 -2 18 0 30 7 30 6 0 8 6 5 14 -3 8 -1 31 5 51 l10 36
-47 -5 c-26 -2 -47 -5 -47 -6 0 -1 -10 -3 -23 -6 -17 -3 -21 0 -16 8 4 7 -1 5
-12 -4 -19 -17 -22 -17 -45 -1 -20 14 -22 15 -11 1 10 -13 10 -17 -3 -22 -8
-3 -15 0 -15 7 0 9 -2 9 -8 1 -6 -11 -31 -15 -152 -30 -25 -3 -51 -10 -57 -16
-9 -7 -13 -7 -13 3 0 10 -3 10 -12 1 -15 -15 -32 -16 -22 -1 3 6 -4 4 -17 -4
-13 -8 -32 -13 -41 -12 -10 2 -20 -1 -24 -6 -3 -5 -10 -9 -15 -9 -6 0 -7 6 -3
13 6 9 5 9 -7 0 -12 -10 -20 -6 -45 23 -17 19 -29 34 -26 34 3 0 -7 10 -21 23
-15 12 -27 26 -27 30 0 4 -13 21 -30 37 -16 16 -30 33 -30 37 0 5 -8 16 -17
24 -21 19 -52 55 -76 89 -9 13 -17 20 -17 15 0 -5 -6 0 -14 10 -12 17 -16 14
-60 -41z"/>
<path d="M3753 4565 c0 -8 4 -12 9 -9 5 3 6 10 3 15 -9 13 -12 11 -12 -6z"/>
<path d="M3919 4523 c-13 -16 -12 -17 4 -4 16 13 21 21 13 21 -2 0 -10 -8 -17
-17z"/>
<path d="M2986 4488 c3 -5 10 -6 15 -3 13 9 11 12 -6 12 -8 0 -12 -4 -9 -9z"/>
<path d="M4146 4492 c-3 -5 1 -9 9 -9 8 0 12 4 9 9 -3 4 -7 8 -9 8 -2 0 -6 -4
-9 -8z"/>
<path d="M2907 4449 c7 -7 15 -10 18 -7 3 3 -2 9 -12 12 -14 6 -15 5 -6 -5z"/>
<path d="M3145 4450 c-3 -6 1 -7 9 -4 18 7 21 14 7 14 -6 0 -13 -4 -16 -10z"/>
<path d="M4113 4415 c0 -8 4 -12 9 -9 5 3 6 10 3 15 -9 13 -12 11 -12 -6z"/>
<path d="M2190 4411 c0 -6 4 -13 10 -16 6 -3 7 1 4 9 -7 18 -14 21 -14 7z"/>
<path d="M3590 4416 c0 -2 7 -7 16 -10 8 -3 12 -2 9 4 -6 10 -25 14 -25 6z"/>
<path d="M3036 4383 c-6 -14 -5 -15 5 -6 7 7 10 15 7 18 -3 3 -9 -2 -12 -12z"/>
<path d="M3795 4370 c-3 -5 -1 -10 4 -10 6 0 11 5 11 10 0 6 -2 10 -4 10 -3 0
-8 -4 -11 -10z"/>
<path d="M2993 4355 c0 -8 4 -12 9 -9 5 3 6 10 3 15 -9 13 -12 11 -12 -6z"/>
<path d="M2887 4309 c7 -7 15 -10 18 -7 3 3 -2 9 -12 12 -14 6 -15 5 -6 -5z"/>
<path d="M2115 4290 c-3 -5 -1 -10 4 -10 6 0 11 5 11 10 0 6 -2 10 -4 10 -3 0
-8 -4 -11 -10z"/>
<path d="M4269 4253 c-13 -16 -12 -17 4 -4 9 7 17 15 17 17 0 8 -8 3 -21 -13z"/>
<path d="M2300 4256 c0 -2 8 -10 18 -17 15 -13 16 -12 3 4 -13 16 -21 21 -21
13z"/>
<path d="M2426 4212 c-3 -5 1 -9 9 -9 8 0 12 4 9 9 -3 4 -7 8 -9 8 -2 0 -6 -4
-9 -8z"/>
<path d="M4586 4212 c-3 -5 1 -9 9 -9 8 0 12 4 9 9 -3 4 -7 8 -9 8 -2 0 -6 -4
-9 -8z"/>
<path d="M4635 4099 c-4 -6 -5 -12 -2 -15 2 -3 7 2 10 11 7 17 1 20 -8 4z"/>
<path d="M2150 4090 c0 -5 5 -10 11 -10 5 0 7 5 4 10 -3 6 -8 10 -11 10 -2 0
-4 -4 -4 -10z"/>
<path d="M4760 3770 c-9 -6 -10 -10 -3 -10 6 0 15 5 18 10 8 12 4 12 -15 0z"/>
<path d="M1830 3736 c0 -2 7 -7 16 -10 8 -3 12 -2 9 4 -6 10 -25 14 -25 6z"/>
<path d="M1830 3611 c0 -6 4 -12 8 -15 5 -3 9 1 9 9 0 8 -4 15 -9 15 -4 0 -8
-4 -8 -9z"/>
<path d="M2155 3501 c-3 -5 -2 -12 3 -15 5 -3 9 1 9 9 0 17 -3 19 -12 6z"/>
<path d="M4426 3412 c-3 -5 1 -9 9 -9 8 0 12 4 9 9 -3 4 -7 8 -9 8 -2 0 -6 -4
-9 -8z"/>
<path d="M4350 3271 c0 -6 4 -13 10 -16 6 -3 7 1 4 9 -7 18 -14 21 -14 7z"/>
<path d="M2195 3250 c-3 -5 -1 -10 4 -10 6 0 11 5 11 10 0 6 -2 10 -4 10 -3 0
-8 -4 -11 -10z"/>
<path d="M4430 3249 c0 -5 5 -7 10 -4 6 3 10 8 10 11 0 2 -4 4 -10 4 -5 0 -10
-5 -10 -11z"/>
<path d="M2195 3170 c3 -5 8 -10 11 -10 2 0 4 5 4 10 0 6 -5 10 -11 10 -5 0
-7 -4 -4 -10z"/>
<path d="M4430 3170 c0 -5 5 -10 11 -10 5 0 7 5 4 10 -3 6 -8 10 -11 10 -2 0
-4 -4 -4 -10z"/>
<path d="M2196 3092 c-3 -5 1 -9 9 -9 8 0 12 4 9 9 -3 4 -7 8 -9 8 -2 0 -6 -4
-9 -8z"/>
<path d="M2193 3045 c0 -8 4 -12 9 -9 5 3 6 10 3 15 -9 13 -12 11 -12 -6z"/>
<path d="M4286 3008 c3 -5 10 -6 15 -3 13 9 11 12 -6 12 -8 0 -12 -4 -9 -9z"/>
<path d="M4750 2970 c0 -5 5 -10 11 -10 5 0 7 5 4 10 -3 6 -8 10 -11 10 -2 0
-4 -4 -4 -10z"/>
<path d="M2270 2929 c0 -5 5 -7 10 -4 6 3 10 8 10 11 0 2 -4 4 -10 4 -5 0 -10
-5 -10 -11z"/>
<path d="M4757 2903 c-10 -9 -9 -23 1 -23 5 0 9 7 9 15 0 17 -1 18 -10 8z"/>
<path d="M4315 2850 c-3 -5 -1 -10 4 -10 6 0 11 5 11 10 0 6 -2 10 -4 10 -3 0
-8 -4 -11 -10z"/>
<path d="M2100 2816 c0 -2 8 -10 18 -17 15 -13 16 -12 3 4 -13 16 -21 21 -21
13z"/>
<path d="M4380 2816 c0 -2 8 -10 18 -17 15 -13 16 -12 3 4 -13 16 -21 21 -21
13z"/>
<path d="M2225 2730 c-3 -6 1 -7 9 -4 18 7 21 14 7 14 -6 0 -13 -4 -16 -10z"/>
<path d="M2935 2601 c-3 -5 -2 -12 3 -15 5 -3 9 1 9 9 0 17 -3 19 -12 6z"/>
<path d="M1919 2583 c-13 -16 -12 -17 4 -4 9 7 17 15 17 17 0 8 -8 3 -21 -13z"/>
<path d="M2977 2565 c-4 -8 -3 -16 1 -19 4 -3 9 4 9 15 2 23 -3 25 -10 4z"/>
<path d="M2933 2539 c-2 -23 3 -25 10 -4 4 8 3 16 -1 19 -4 3 -9 -4 -9 -15z"/>
<path d="M3810 2529 c0 -5 5 -7 10 -4 6 3 10 8 10 11 0 2 -4 4 -10 4 -5 0 -10
-5 -10 -11z"/>
<path d="M3114 2512 c4 -3 14 -7 22 -8 9 -1 13 0 10 4 -4 3 -14 7 -22 8 -9 1
-13 0 -10 -4z"/>
<path d="M3635 2510 c3 -5 8 -10 11 -10 2 0 4 5 4 10 0 6 -5 10 -11 10 -5 0
-7 -4 -4 -10z"/>
<path d="M3695 2509 c-3 -4 2 -6 10 -5 21 3 28 13 10 13 -9 0 -18 -4 -20 -8z"/>
<path d="M3755 2510 c3 -5 8 -10 11 -10 2 0 4 5 4 10 0 6 -5 10 -11 10 -5 0
-7 -4 -4 -10z"/>
<path d="M3806 2492 c-3 -5 1 -9 9 -9 8 0 12 4 9 9 -3 4 -7 8 -9 8 -2 0 -6 -4
-9 -8z"/>
<path d="M3850 2496 c0 -2 7 -7 16 -10 8 -3 12 -2 9 4 -6 10 -25 14 -25 6z"/>
<path d="M2836 2463 c-6 -14 -5 -15 5 -6 7 7 10 15 7 18 -3 3 -9 -2 -12 -12z"/>
<path d="M3414 2472 c4 -3 14 -7 22 -8 9 -1 13 0 10 4 -4 3 -14 7 -22 8 -9 1
-13 0 -10 -4z"/>
<path d="M3475 2469 c-3 -4 2 -6 10 -5 21 3 28 13 10 13 -9 0 -18 -4 -20 -8z"/>
<path d="M3715 2441 c-3 -5 -2 -12 3 -15 5 -3 9 1 9 9 0 17 -3 19 -12 6z"/>
<path d="M3175 2431 c-3 -5 -2 -12 3 -15 5 -3 9 1 9 9 0 17 -3 19 -12 6z"/>
<path d="M3246 2432 c-3 -5 1 -9 9 -9 8 0 12 4 9 9 -3 4 -7 8 -9 8 -2 0 -6 -4
-9 -8z"/>
<path d="M3295 2429 c-3 -4 2 -6 10 -5 21 3 28 13 10 13 -9 0 -18 -4 -20 -8z"/>
<path d="M2233 2405 c0 -8 4 -12 9 -9 5 3 6 10 3 15 -9 13 -12 11 -12 -6z"/>
<path d="M2866 2408 c3 -5 10 -6 15 -3 13 9 11 12 -6 12 -8 0 -12 -4 -9 -9z"/>
<path d="M2970 2376 c0 -2 7 -7 16 -10 8 -3 12 -2 9 4 -6 10 -25 14 -25 6z"/>
<path d="M3395 2341 c-3 -5 -2 -12 3 -15 5 -3 9 1 9 9 0 17 -3 19 -12 6z"/>
<path d="M3500 2336 c0 -2 8 -10 18 -17 15 -13 16 -12 3 4 -13 16 -21 21 -21
13z"/>
<path d="M4393 2325 c0 -8 4 -12 9 -9 5 3 6 10 3 15 -9 13 -12 11 -12 -6z"/>
<path d="M3355 2311 c-3 -5 -2 -12 3 -15 5 -3 9 1 9 9 0 17 -3 19 -12 6z"/>
<path d="M3075 2290 c-3 -5 -1 -10 4 -10 6 0 11 5 11 10 0 6 -2 10 -4 10 -3 0
-8 -4 -11 -10z"/>
<path d="M3715 2291 c-3 -5 -2 -12 3 -15 5 -3 9 1 9 9 0 17 -3 19 -12 6z"/>
<path d="M4190 2130 c0 -5 5 -10 11 -10 5 0 7 5 4 10 -3 6 -8 10 -11 10 -2 0
-4 -4 -4 -10z"/>
<path d="M4750 2050 c0 -5 5 -10 11 -10 5 0 7 5 4 10 -3 6 -8 10 -11 10 -2 0
-4 -4 -4 -10z"/>
<path d="M3584 1972 c4 -3 14 -7 22 -8 9 -1 13 0 10 4 -4 3 -14 7 -22 8 -9 1
-13 0 -10 -4z"/>
<path d="M3317 1943 c-10 -9 -9 -23 1 -23 5 0 9 7 9 15 0 17 -1 18 -10 8z"/>
<path d="M2704 1912 c4 -3 14 -7 22 -8 9 -1 13 0 10 4 -4 3 -14 7 -22 8 -9 1
-13 0 -10 -4z"/>
<path d="M3270 1889 c0 -5 5 -7 10 -4 6 3 10 8 10 11 0 2 -4 4 -10 4 -5 0 -10
-5 -10 -11z"/>
<path d="M3355 1890 c3 -5 8 -10 11 -10 2 0 4 5 4 10 0 6 -5 10 -11 10 -5 0
-7 -4 -4 -10z"/>
</g>
</svg>
